<svg xmlns="http://www.w3.org/2000/svg" viewBox="0 0 48 48" id="Workflow-Scrum--Streamline-Ultimate.svg" height="48" width="48"><desc>Workflow Scrum Streamline Icon: https://streamlinehq.com</desc><path d="m46.66 42.12 -3.9 -2.94a1.5 1.5 0 0 0 -2.4 1.2v0.94h-10.72a13.26 13.26 0 0 0 -7.8 -22.42A7.78 7.78 0 0 1 17.32 12 7.66 7.66 0 0 1 32 9.02h-0.2a1.5 1.5 0 0 0 -1.06 2.56l2.76 2.76a1.5 1.5 0 0 0 2.12 0l2.76 -2.76a1.54 1.54 0 0 0 0.4 -1.58 1.5 1.5 0 0 0 -1.38 -0.92h-1.12A11.66 11.66 0 1 0 16.1 19.42a13.3 13.3 0 0 0 -8.84 9.52h-1.58a1.5 1.5 0 0 0 -1.06 2.56l3.2 3.22a1.54 1.54 0 0 0 2.14 0l3.2 -3.22a1.5 1.5 0 0 0 -1.06 -2.56h-0.68a9.26 9.26 0 1 1 8.74 12.38H2.74a2 2 0 0 0 0 4h37.62v0.92a1.52 1.52 0 0 0 0.82 1.36 1.62 1.62 0 0 0 0.68 0.16 1.6 1.6 0 0 0 0.9 -0.32l3.9 -2.92a1.5 1.5 0 0 0 0.6 -1.2 1.48 1.48 0 0 0 -0.6 -1.2Z" fill="#000000" stroke-width="1"></path></svg>